ModelForces
version=1
nRows=4
nColumns=155
inDegrees=no

This file contains the forces exerted on a model during a simulation.

A force is a generalized force, meaning that it can be either a force (N) or a torque (Nm).

Units are S.I. units (second, meters, Newtons, ...)
Angles are in degrees.

endheader
time	glut_med1_r	glut_med2_r	glut_med3_r	glut_min1_r	glut_min2_r	glut_min3_r	semimem_r	semiten_r	bifemlh_r	bifemsh_r	sar_r	add_long_r	add_brev_r	add_mag1_r	add_mag2_r	add_mag3_r	tfl_r	pect_r	grac_r	glut_max1_r	glut_max2_r	glut_max3_r	iliacus_r	psoas_r	quad_fem_r	gem_r	peri_r	rect_fem_r	vas_med_r	vas_int_r	vas_lat_r	med_gas_r	lat_gas_r	soleus_r	tib_post_r	flex_dig_r	flex_hal_r	tib_ant_r	per_brev_r	per_long_r	per_tert_r	ext_dig_r	ext_hal_r	glut_med1_l	glut_med2_l	glut_med3_l	glut_min1_l	glut_min2_l	glut_min3_l	semimem_l	semiten_l	bifemlh_l	bifemsh_l	sar_l	add_long_l	add_brev_l	add_mag1_l	add_mag2_l	add_mag3_l	tfl_l	pect_l	grac_l	glut_max1_l	glut_max2_l	glut_max3_l	iliacus_l	psoas_l	quad_fem_l	gem_l	peri_l	rect_fem_l	vas_med_l	vas_int_l	vas_lat_l	med_gas_l	lat_gas_l	soleus_l	tib_post_l	flex_dig_l	flex_hal_l	tib_ant_l	per_brev_l	per_long_l	per_tert_l	ext_dig_l	ext_hal_l	ercspn_r	ercspn_l	intobl_r	intobl_l	extobl_r	extobl_l	femur_lat_meniscii_r.femur_lat_r.force.X	femur_lat_meniscii_r.femur_lat_r.force.Y	femur_lat_meniscii_r.femur_lat_r.force.Z	femur_lat_meniscii_r.femur_lat_r.torque.X	femur_lat_meniscii_r.femur_lat_r.torque.Y	femur_lat_meniscii_r.femur_lat_r.torque.Z	femur_lat_meniscii_r.meniscus_lat_r.force.X	femur_lat_meniscii_r.meniscus_lat_r.force.Y	femur_lat_meniscii_r.meniscus_lat_r.force.Z	femur_lat_meniscii_r.meniscus_lat_r.torque.X	femur_lat_meniscii_r.meniscus_lat_r.torque.Y	femur_lat_meniscii_r.meniscus_lat_r.torque.Z	femur_med_meniscii_r.femur_med_r.force.X	femur_med_meniscii_r.femur_med_r.force.Y	femur_med_meniscii_r.femur_med_r.force.Z	femur_med_meniscii_r.femur_med_r.torque.X	femur_med_meniscii_r.femur_med_r.torque.Y	femur_med_meniscii_r.femur_med_r.torque.Z	femur_med_meniscii_r.meniscus_med_r.force.X	femur_med_meniscii_r.meniscus_med_r.force.Y	femur_med_meniscii_r.meniscus_med_r.force.Z	femur_med_meniscii_r.meniscus_med_r.torque.X	femur_med_meniscii_r.meniscus_med_r.torque.Y	femur_med_meniscii_r.meniscus_med_r.torque.Z	femur_med_tibia_r.tibia_upper_r.force.X	femur_med_tibia_r.tibia_upper_r.force.Y	femur_med_tibia_r.tibia_upper_r.force.Z	femur_med_tibia_r.tibia_upper_r.torque.X	femur_med_tibia_r.tibia_upper_r.torque.Y	femur_med_tibia_r.tibia_upper_r.torque.Z	femur_med_tibia_r.femur_med_r.force.X	femur_med_tibia_r.femur_med_r.force.Y	femur_med_tibia_r.femur_med_r.force.Z	femur_med_tibia_r.femur_med_r.torque.X	femur_med_tibia_r.femur_med_r.torque.Y	femur_med_tibia_r.femur_med_r.torque.Z	femur_lat_tibia_r.tibia_upper_r.force.X	femur_lat_tibia_r.tibia_upper_r.force.Y	femur_lat_tibia_r.tibia_upper_r.force.Z	femur_lat_tibia_r.tibia_upper_r.torque.X	femur_lat_tibia_r.tibia_upper_r.torque.Y	femur_lat_tibia_r.tibia_upper_r.torque.Z	femur_lat_tibia_r.femur_lat_r.force.X	femur_lat_tibia_r.femur_lat_r.force.Y	femur_lat_tibia_r.femur_lat_r.force.Z	femur_lat_tibia_r.femur_lat_r.torque.X	femur_lat_tibia_r.femur_lat_r.torque.Y	femur_lat_tibia_r.femur_lat_r.torque.Z	aACL_R	pACL_R	aPCL_R	pPCL_R	aMCL_R	mMCL_R	pMCL_R	aLCL_R	mLCL_R	pLCL_R	aPCL_L	pPCL_L	aMCL_L	aLCL_L
      0.16455774	     11.42986931	      8.34493468	      8.97537150	      3.85298575	      4.47860381	      4.84729574	      0.00000000	    170.37751286	    126.27461687	    281.65247303	    133.01350975	      8.30531996	      5.98014813	      3.44722383	      3.63891464	      6.13370691	      5.06947828	      3.25223186	    102.44369913	      5.38819963	      8.19682556	      6.15978118	     27.54586141	     18.52769872	      5.29825654	      3.65577789	      6.24162129	     53.92600410	     31.08748703	     33.12034184	     44.52757851	      0.00000000	      0.00000000	      0.00000000	      0.00000000	      0.00000000	      0.00000000	     35.13074148	      2.10244265	      2.49543897	      2.99322366	     41.52739212	     10.84630935	     11.42986931	      8.34493468	      8.97537150	      3.85298575	      4.47860381	      4.84729574	      0.00000000	      6.18394812	     12.20848048	     10.54549401	      2.19842531	      8.30531996	      5.98014813	      3.44722383	      3.63891464	      6.13370691	      5.42463320	      3.25223186	      2.26947554	      5.38819963	      8.19682556	      6.15978118	     27.54586141	     18.52769872	      5.29825654	      3.65577789	      6.24162129	     17.00668269	      0.00000000	      0.00000000	      0.00000000	     21.16942811	     10.00152498	     50.78105316	     50.96943424	      5.44921798	      4.87526815	     13.23406033	      7.07912760	     18.17962700	      2.86464910	      8.82777247	      2.77323695	     36.26694933	     36.26694933	     13.47538620	     13.47538620	     30.83921797	     30.83921797	     57.51205207	    123.05649272	     12.64191865	     -8.06828065	      1.36697514	     22.25325353	    -57.51205207	   -123.05649272	    -12.64191865	      3.36568524	     -1.71178046	      2.49666415	     15.14587751	     13.57859683	      9.39654073	     -3.49169665	     -0.35794825	      6.10514955	    -15.14587751	    -13.57859683	     -9.39654073	     -0.11716895	      0.14188222	      0.02405390	   -821.28612659	   -732.36899764	    230.02624413	    -16.94779633	     18.48333134	     -1.84198751	    821.28612659	    732.36899764	   -230.02624413	    106.84403185	    -14.93115931	    334.11725471	     -0.42836377	     -0.52373143	     -0.17953579	      0.01731547	     -0.01523575	      0.00313789	      0.42836377	      0.52373143	      0.17953579	     -0.08588343	      0.01090494	      0.17309555	     -8.16971649	      0.00000000	    582.69352476	    384.11164716	      0.00000000	      0.00000000	      0.00000000	      0.00000000	      0.00000000	      0.00000000	      0.00000000	      0.00000000	      0.00000001	      0.00000000
      0.16484583	     11.41596579	      8.33477032	      8.96430844	      3.84848486	      4.47367880	      4.84100583	      0.00000000	    170.46804385	    126.16876570	    281.59698898	    133.02379685	      8.29508758	      5.97322737	      3.52069925	      3.63440192	      6.12553001	      5.06339315	      3.24840559	    102.44738188	      5.38161047	      8.18677924	      6.15211456	     27.52712985	     18.50633697	      5.29193268	      3.65268825	      6.23855213	     54.19157507	     31.16103654	     33.16409436	     44.54840784	      0.00000000	      0.00000000	      0.00000000	      0.00000000	      0.00000000	      0.00000000	     35.17559003	      2.11485725	      2.51884072	     26.04130484	     41.78164843	     10.92049311	     11.41596579	      8.33477032	      8.96430844	      3.84848486	      4.47367880	      4.84100583	      0.00000000	      6.17593938	     12.19297995	     10.53289269	      2.19586919	      8.29508758	      5.97322737	      3.52069925	      3.63440192	      6.12553001	      5.41959502	      3.24840559	      2.26679044	      5.38161047	      8.18677924	      6.15211456	     27.52712985	     18.50633697	      5.29193268	      3.65268825	      6.23855213	     16.98306899	      0.00000000	      0.00000000	      0.00000000	     21.16242212	      9.99720521	     50.72438609	     50.93947565	      5.44272308	      4.86936020	     13.21670840	      7.06930076	     18.16125922	      2.86135836	      8.81521433	      2.76949219	     36.22448876	     36.22448876	     13.45834187	     13.45834187	     30.82376480	     30.82376480	     58.10749776	    120.91689260	     11.60816015	     -7.57533961	      1.37262139	     22.51463020	    -58.10749776	   -120.91689260	    -11.60816015	      3.26902320	     -1.69788864	      2.42985476	     15.57716211	     13.70326336	      9.28062018	     -3.44024567	     -0.36899661	      6.28021578	    -15.57716211	    -13.70326336	     -9.28062018	     -0.12398378	      0.15411906	      0.01948214	   -826.05274684	   -732.31944986	    229.24907024	    -16.90365489	     18.54470788	     -1.83848220	    826.05274684	    732.31944986	   -229.24907024	    106.51334763	    -15.00805573	    336.02649836	     -0.42751387	     -0.52145624	     -0.17789979	      0.01717654	     -0.01517425	      0.00320867	      0.42751387	      0.52145624	      0.17789979	     -0.08512054	      0.01086670	      0.17269490	     -8.21864949	      0.00000000	    586.03853686	    385.83825180	      0.00000000	      0.00000000	      0.00000000	      0.00000000	      0.00000000	      0.00000000	      0.00000000	      0.00000000	      0.00000001	      0.00000000
      0.16513392	     11.40209382	      8.32464523	      8.95328823	      3.84400118	      4.46877280	      4.83473989	      0.00000000	    170.54924557	    126.06623407	    281.52907609	    133.03004807	      8.28489484	      5.96633301	      3.58592075	      3.62990665	      6.11738465	      5.05707405	      3.24459401	    102.44675504	      5.37504690	      8.17677192	      6.14447775	     27.50847171	     18.48505914	      5.28563315	      3.64961082	      6.23544992	     54.43406439	     31.15318863	     33.15645621	     44.53310830	      0.00000000	      0.00000000	      0.00000000	      0.00000000	      0.00000000	      0.00000000	     35.21854172	      2.12748158	      2.54254337	     10.75067050	     41.96854606	     10.96448955	     11.40209382	      8.32464523	      8.95328823	      3.84400118	      4.46877280	      4.83473989	      0.00000000	      6.16796175	     12.17751482	     10.52033989	      2.19332284	      8.28489484	      5.96633301	      3.58592075	      3.62990665	      6.11738465	      5.41457599	      3.24459401	      2.26411566	      5.37504690	      8.17677192	      6.14447775	     27.50847171	     18.48505914	      5.28563315	      3.64961082	      6.23544992	     16.95954143	      0.00000000	      0.00000000	      0.00000000	     21.15531498	      9.99284146	     50.66774456	     50.90960227	      5.43620243	      4.86341603	     13.19940925	      7.05950556	     18.14293043	      2.85808053	      8.80280056	      2.76580115	     36.18219074	     36.18219074	     13.44136371	     13.44136371	     30.80837243	     30.80837243	     59.18638142	    119.67165279	     11.11972842	     -7.33345589	      1.39940677	     22.96738808	    -59.18638142	   -119.67165279	    -11.11972842	      3.21416634	     -1.71706125	      2.37676316	     15.52687535	     13.49231200	      9.16844103	     -3.40048319	     -0.36613653	      6.25804974	    -15.52687535	    -13.49231200	     -9.16844103	     -0.12103701	      0.15308482	      0.01921867	   -830.08045785	   -732.47373063	    228.72298422	    -16.86661630	     18.60355996	     -1.80874917	    830.08045785	    732.47373063	   -228.72298422	    106.28704693	    -15.07635101	    337.62869379	     -0.43833081	     -0.52619434	     -0.17261584	      0.01708593	     -0.01526096	      0.00313398	      0.43833081	      0.52619434	      0.17261584	     -0.08298654	      0.01103540	      0.17709126	     -8.26354288	      0.00000000	    589.39390530	    387.61174959	      0.00000000	      0.00000000	      0.00000000	      0.00000000	      0.00000000	      0.00000000	      0.00000000	      0.00000000	      0.00000001	      0.00000000
      0.16542201	     11.38825385	      8.31455926	      8.94231071	      3.83953466	      4.46388573	      4.82849785	      0.00000000	    170.62129037	    125.96809105	    281.46111647	    133.03230888	      8.27474159	      5.95946496	      3.64386686	      3.62542877	      6.10927071	      5.05055725	      3.24079704	    102.44190154	      5.36850881	      8.16680344	      6.13687063	     27.48988670	     18.46386490	      5.27935786	      3.64654557	      6.23231504	     54.67567312	     31.14299436	     33.14568959	     44.51446848	      0.00000000	      0.00000000	      0.00000000	      0.00000000	      0.00000000	      0.00000000	     35.26101347	      2.14001973	      2.56628501	     28.02476849	     42.15764487	     11.01012153	     11.38825385	      8.31455926	      8.94231071	      3.83953466	      4.46388573	      4.82849785	      0.00000000	      6.16001509	     12.16208534	     10.50783543	      2.19078622	      8.27474159	      5.95946496	      3.64386686	      3.62542877	      6.10927071	      5.40957603	      3.24079704	      2.26145114	      5.36850881	      8.16680344	      6.13687063	     27.48988670	     18.46386490	      5.27935786	      3.64654557	      6.23231504	     16.93609976	      0.00000000	      0.00000000	      0.00000000	     21.14810744	      9.98843414	     50.61113062	     50.87981417	      5.42965568	      4.85743524	     13.18216293	      7.04974195	     18.12464084	      2.85481553	      8.79053031	      2.76216343	     36.14005463	     36.14005463	     13.42445145	     13.42445145	     30.79304060	     30.79304060	     59.96664344	    120.23004890	     11.37935929	     -7.45703622	      1.42294516	     23.28008242	    -59.96664344	   -120.23004890	    -11.37935929	      3.23848980	     -1.74806987	      2.38584668	     15.62819492	     13.42030575	      9.09440668	     -3.37197145	     -0.36765054	      6.29740840	    -15.62819492	    -13.42030575	     -9.09440668	     -0.12136323	      0.15542094	      0.01885866	   -833.76065964	   -731.92652940	    229.70449412	    -16.86435616	     18.69993786	     -1.79117164	    833.76065964	    731.92652940	   -229.70449412	    106.67687129	    -15.15046283	    339.09452785	     -0.45754109	     -0.54898562	     -0.18087469	      0.01781207	     -0.01595095	      0.00335756	      0.45754109	      0.54898562	      0.18087469	     -0.08687367	      0.01151372	      0.18480856	     -8.30718892	      0.00000000	    592.76652136	    389.43494334	      0.00000000	      0.00000000	      0.00000000	      0.00000000	      0.00000000	      0.00000000	      0.00000000	      0.00000000	      0.00000001	      0.00000000
